<svg id="Layer_1" data-name="Layer 1" xmlns="http://www.w3.org/2000/svg" viewBox="0 0 710 560"><defs><style>.cls-1{fill:#c4c4c4;}.cls-2{fill:#00acc1;}</style></defs><path class="cls-1" d="M697,462.09H96.8a2.74,2.74,0,0,1,0-5.48H697a2.74,2.74,0,0,1,0,5.48Z"/><path class="cls-1" d="M697,372.92H96.8a2.74,2.74,0,1,1,0-5.47H697a2.74,2.74,0,1,1,0,5.47Z"/><path class="cls-1" d="M697,283.74H96.8a2.74,2.74,0,1,1,0-5.47H697a2.74,2.74,0,1,1,0,5.47Z"/><path class="cls-1" d="M697,194.56H96.8a2.74,2.74,0,1,1,0-5.47H697a2.74,2.74,0,1,1,0,5.47Z"/><path class="cls-1" d="M697,105.38H96.8a2.74,2.74,0,1,1,0-5.47H697a2.74,2.74,0,1,1,0,5.47Z"/><path class="cls-1" d="M697,16.21H96.8a2.74,2.74,0,1,1,0-5.47H697a2.74,2.74,0,1,1,0,5.47Z"/><path class="cls-1" d="M695.16,554H70.74a5.48,5.48,0,0,1-5.48-5.47V13.47a5.48,5.48,0,0,1,10.95,0V543.06H695.16a5.47,5.47,0,1,1,0,10.94Z"/><path class="cls-1" d="M23.39,516.08H19.68V493l-6.31,3.84-1.61-2.62,8.36-5.17h3.27Z"/><path class="cls-1" d="M48.17,502.59c0,9-3,14-9.06,14s-9-5-9-14,3-13.94,9.05-13.94S48.17,493.66,48.17,502.59Zm-14.23,0c0,8,1.78,11,5.17,11s5.18-3.08,5.18-11-1.82-11-5.18-11S33.94,494.67,33.94,502.59Z"/><path class="cls-1" d="M22.65,406.74c0,5.05-3.23,8.65-11.51,16.93H23.3l-.45,3.11h-16v-2.95c9.54-9.94,11.88-12.53,11.88-16.93a4.17,4.17,0,0,0-4.44-4.49c-2.26,0-3.76.89-5.5,2.95l-2.5-1.93a10,10,0,0,1,8.19-4.08C19.5,399.35,22.65,402.54,22.65,406.74Z"/><path class="cls-1" d="M45.64,413.28c0,9-3,14-9,14s-9.05-5-9.05-14,3-13.93,9.05-13.93S45.64,404.36,45.64,413.28Zm-14.22,0c0,8,1.78,11,5.17,11s5.17-3.08,5.17-11-1.81-11-5.17-11S31.42,405.36,31.42,413.28Z"/><path class="cls-1" d="M22.33,316.92c0,3.44-2.23,5.5-5.26,6.23,3.4.32,6.11,2.46,6.11,6.54,0,4.73-3.6,8.29-9.22,8.29a10.17,10.17,0,0,1-8.12-3.64l2.22-2.06A7.61,7.61,0,0,0,13.84,335c3.39,0,5.46-2.11,5.46-5.3,0-3.72-2.1-4.84-5.38-4.84h-2l.44-2.88h1.38a4.54,4.54,0,0,0,4.89-4.76c0-2.55-1.78-4.13-4.49-4.13a7.6,7.6,0,0,0-5.57,2.43l-1.94-2.23a11,11,0,0,1,7.71-3.19C19.49,310.05,22.33,313.29,22.33,316.92Z"/><path class="cls-1" d="M45.72,324c0,9-3,14-9,14s-9-5-9-14,3-13.94,9.05-13.94S45.72,315.07,45.72,324ZM31.5,324c0,8,1.78,11,5.17,11s5.17-3.06,5.17-11S40,313,36.67,313,31.5,316.08,31.5,324Z"/><path class="cls-1" d="M24.85,241.53H21.34v6.67h-3.6v-6.67H6.18v-2.67l8.13-18.1,3.11,1.29L10.1,238.58h7.68l.32-7.27h3.24v7.27h3.51Z"/><path class="cls-1" d="M46.39,234.7c0,9-3,14-9,14s-9.05-5-9.05-14,3-13.94,9.05-13.94S46.39,225.77,46.39,234.7Zm-14.22,0c0,8,1.78,11,5.17,11s5.17-3.07,5.17-11-1.81-11-5.17-11S32.17,226.78,32.17,234.7Z"/><path class="cls-1" d="M22.17,134.78H11.62v8a9.3,9.3,0,0,1,4.32-1.05c4.57,0,7.68,3.19,7.68,8.57s-3.76,9.13-9.37,9.13a10.59,10.59,0,0,1-8-3.44l2.27-2.18a7.26,7.26,0,0,0,5.69,2.59c3.4,0,5.54-2.22,5.54-6.19,0-4.15-2.14-5.61-4.93-5.61a8.34,8.34,0,0,0-3.84.93H8.06V131.87H22.69Z"/><path class="cls-1" d="M45.77,145.41c0,9-3,14-9.05,14s-9.06-5-9.06-14,3-13.94,9.06-13.94S45.77,136.48,45.77,145.41Zm-14.23,0c0,8,1.78,11,5.18,11s5.17-3.07,5.17-11-1.82-11-5.17-11S31.54,137.49,31.54,145.41Z"/><path class="cls-1" d="M24.47,60.43c0,5.9-3.84,9.66-8.61,9.66-6.58,0-9.09-5.42-9.09-13.18,0-8.85,3.84-14.75,10.22-14.75a9.8,9.8,0,0,1,5.58,1.66l-1.46,2.46A7.94,7.94,0,0,0,17,45.11c-3.92,0-6.26,4.09-6.47,10.26A7.62,7.62,0,0,1,17,51.82C21,51.82,24.47,54.65,24.47,60.43Zm-3.76.12c0-4.28-1.82-5.78-4.37-5.78s-4.44,1.5-5.81,3.72c.16,5.9,1.73,8.64,5.33,8.64C19.06,67.13,20.71,64.51,20.71,60.55Z"/><path class="cls-1" d="M46.41,56.1c0,9-3,14-9,14s-9-5-9-14,3-13.94,9.05-13.94S46.41,47.18,46.41,56.1Zm-14.22,0c0,8,1.77,11,5.17,11s5.17-3.07,5.17-11-1.81-11-5.17-11S32.19,48.18,32.19,56.1Z"/><path class="cls-2" d="M191.8,201.62c-19.07,0-57.21,305.33-76.28,305.33H268.08C249,507,210.87,201.62,191.8,201.62Z"/><path class="cls-2" d="M552,278.71c-14.23,0-42.69,227.85-56.92,227.85H608.89C594.65,506.56,566.19,278.71,552,278.71Z"/><path class="cls-2" d="M316,9.75C285,9.75,222.86,507,191.8,507H440.23C409.17,507,347.07,9.75,316,9.75Z"/><path class="cls-2" d="M458.37,215.41c-18.19,0-54.58,291.26-72.77,291.26H531.13C512.94,506.67,476.56,215.41,458.37,215.41Z"/></svg>