<svg xmlns="http://www.w3.org/2000/svg" viewBox="0 0 283 330"><defs><style>.cls-1{isolation:isolate;}.cls-2,.cls-3,.cls-5{fill:#cdcdcd;}.cls-3{opacity:0.5;}.cls-12,.cls-14,.cls-18,.cls-3,.cls-4{mix-blend-mode:multiply;}.cls-5,.cls-9{opacity:0.25;}.cls-6{fill:#e5ecf3;}.cls-10,.cls-7{fill:#ff4343;}.cls-8{fill:#d9e0e7;}.cls-16,.cls-9{fill:#fff;}.cls-10{mix-blend-mode:screen;}.cls-11,.cls-12{fill:#fe9243;}.cls-11,.cls-12,.cls-20{fill-rule:evenodd;}.cls-11{opacity:0.95;}.cls-12,.cls-14{opacity:0.3;}.cls-13{fill:#ece4f2;}.cls-15{fill:#aea2c5;}.cls-17{fill:#ded7e4;}.cls-18{opacity:0.7;}.cls-19{fill:#5ca4ee;}.cls-20{fill:#a7d2ff;}</style></defs><g class="cls-1"><g id="Layer_1" data-name="Layer 1"><path class="cls-2" d="M105.17,271.49-5.39,230.43a17.92,17.92,0,0,1-10.55-23L56.66,11.92a17.91,17.91,0,0,1,23-10.55L190.24,42.43a17.91,17.91,0,0,1,10.56,23L128.2,260.93A17.92,17.92,0,0,1,105.17,271.49Z"/><path class="cls-3" d="M53.81,230.12,124.33,40.24a3.59,3.59,0,0,1,4.61-2.11h0a3.58,3.58,0,0,1,2.11,4.61L60.53,232.62a3.59,3.59,0,0,1-4.61,2.11h0A3.58,3.58,0,0,1,53.81,230.12Z"/><g class="cls-4"><path class="cls-5" d="M184.72,67.13a16.52,16.52,0,0,0-1.43-2.45L128.63,89a17.42,17.42,0,0,0,.83,2h0c3.63,7.68,12.42,11.38,19.63,8.27l29.14-12.55C185.44,83.54,188.35,74.8,184.72,67.13Z"/></g><path class="cls-6" d="M143.71,93.13l16.1-7.32L149.57,63.32l-16.09,7.32a12.2,12.2,0,0,0-6,16.16l.13.28A12.19,12.19,0,0,0,143.71,93.13Z"/><path class="cls-7" d="M176.33,78.56a12.45,12.45,0,0,0,6.17-16.48l-.13-.29a12.46,12.46,0,0,0-16.48-6.17l-17.3,7.88A44.84,44.84,0,0,0,159,86.43Z"/><g class="cls-4"><path class="cls-8" d="M143.71,93.13l15.16-6.9c.06.07.1.14.16.2l17.3-7.87a12.44,12.44,0,0,0,7.28-11.28c-1.39,2.16-4.59,5.86-11.63,9.58-10.92,5.77-31.66,14.5-31.66,14.5a12.51,12.51,0,0,1-8.62.67A12.17,12.17,0,0,0,143.71,93.13Z"/></g><path class="cls-9" d="M145.7,95.66l31.36-14.19a15.41,15.41,0,0,0,7.69-20.4h0a15.42,15.42,0,0,0-20.4-7.7L133,67.56a15.42,15.42,0,0,0-7.7,20.4h0A15.43,15.43,0,0,0,145.7,95.66Z"/><path class="cls-10" d="M160.2,70.14c-8.58,3.91-16.21,5.61-17,3.8s5.46-6.46,14.05-10.37,16.21-5.6,17-3.79S168.78,66.23,160.2,70.14Z"/><g class="cls-4"><path class="cls-5" d="M166.19,117a16.78,16.78,0,0,0-1.43-2.44L110.1,138.86a15.88,15.88,0,0,0,.83,2h0c3.63,7.67,12.41,11.37,19.63,8.27l29.14-12.56C166.91,133.43,169.82,124.69,166.19,117Z"/></g><path class="cls-6" d="M125.18,143l16.1-7.32L131,113.21,115,120.53a12.2,12.2,0,0,0-6,16.16l.13.28A12.19,12.19,0,0,0,125.18,143Z"/><path class="cls-7" d="M157.8,128.45A12.44,12.44,0,0,0,164,112l-.14-.3a12.44,12.44,0,0,0-16.47-6.17l-17.3,7.88a44.84,44.84,0,0,0,10.44,22.93Z"/><g class="cls-4"><path class="cls-8" d="M125.18,143l15.16-6.89c0,.06.1.13.16.19l17.3-7.87a12.42,12.42,0,0,0,7.27-11.28c-1.38,2.16-4.58,5.86-11.62,9.58-10.92,5.77-31.66,14.5-31.66,14.5a12.51,12.51,0,0,1-8.62.67A12.15,12.15,0,0,0,125.18,143Z"/></g><path class="cls-9" d="M127.17,145.55l31.36-14.19a15.41,15.41,0,0,0,7.69-20.4h0a15.42,15.42,0,0,0-20.4-7.7l-31.36,14.19a15.42,15.42,0,0,0-7.7,20.4h0A15.43,15.43,0,0,0,127.17,145.55Z"/><path class="cls-10" d="M141.67,120c-8.58,3.91-16.21,5.61-17,3.8s5.46-6.46,14.05-10.36,16.21-5.61,17-3.8S150.25,116.13,141.67,120Z"/><g class="cls-4"><path class="cls-5" d="M147.66,166.91a16.78,16.78,0,0,0-1.43-2.44L91.57,188.75a15.26,15.26,0,0,0,.83,2h0C96,198.39,104.81,202.1,112,199l29.15-12.56C148.38,183.33,151.29,174.59,147.66,166.91Z"/></g><path class="cls-6" d="M106.65,192.92l16.1-7.33L112.51,163.1l-16.09,7.32a12.19,12.19,0,0,0-6,16.16l.13.29A12.19,12.19,0,0,0,106.65,192.92Z"/><path class="cls-7" d="M139.27,178.34a12.44,12.44,0,0,0,6.17-16.47l-.14-.29a12.42,12.42,0,0,0-16.47-6.17l-17.3,7.87A45,45,0,0,0,122,186.22Z"/><g class="cls-4"><path class="cls-8" d="M106.65,192.92l15.16-6.9.15.2,17.31-7.88a12.42,12.42,0,0,0,7.27-11.28c-1.39,2.17-4.58,5.86-11.62,9.58-10.93,5.78-31.66,14.51-31.66,14.51a12.53,12.53,0,0,1-8.62.67A12.2,12.2,0,0,0,106.65,192.92Z"/></g><path class="cls-9" d="M108.63,195.44,140,181.26a15.42,15.42,0,0,0,7.69-20.41h0a15.41,15.41,0,0,0-20.4-7.69L95.92,167.34a15.43,15.43,0,0,0-7.69,20.41h0A15.42,15.42,0,0,0,108.63,195.44Z"/><path class="cls-10" d="M123.14,169.93c-8.59,3.91-16.21,5.6-17,3.79s5.46-6.45,14.05-10.36,16.21-5.61,17-3.8S131.72,166,123.14,169.93Z"/><g class="cls-4"><path class="cls-5" d="M129.13,216.81a16.89,16.89,0,0,0-1.43-2.45L73,238.65a17.5,17.5,0,0,0,.84,2h0c3.63,7.67,12.41,11.38,19.62,8.27l29.15-12.56C129.85,233.22,132.75,224.48,129.13,216.81Z"/></g><path class="cls-6" d="M88.12,242.81l16.1-7.33L94,213l-16.1,7.33a12.19,12.19,0,0,0-6,16.15l.13.29A12.21,12.21,0,0,0,88.12,242.81Z"/><path class="cls-7" d="M120.74,228.23a12.44,12.44,0,0,0,6.17-16.47l-.14-.29a12.42,12.42,0,0,0-16.47-6.17L93,213.17a45,45,0,0,0,10.44,22.94Z"/><g class="cls-4"><path class="cls-8" d="M88.12,242.81l15.16-6.9.15.2,17.31-7.88A12.42,12.42,0,0,0,128,217c-1.39,2.17-4.58,5.87-11.62,9.59C105.46,232.31,84.73,241,84.73,241a12.55,12.55,0,0,1-8.63.67A12.19,12.19,0,0,0,88.12,242.81Z"/></g><path class="cls-9" d="M90.1,245.33l31.37-14.18a15.43,15.43,0,0,0,7.69-20.41h0a15.42,15.42,0,0,0-20.41-7.69L77.39,217.23a15.42,15.42,0,0,0-7.69,20.41h0A15.41,15.41,0,0,0,90.1,245.33Z"/><path class="cls-10" d="M104.61,219.82c-8.59,3.91-16.21,5.61-17,3.79s5.46-6.45,14.05-10.36,16.21-5.61,17-3.79S113.19,215.91,104.61,219.82Z"/><g class="cls-4"><path class="cls-5" d="M115.22,41.32a16.52,16.52,0,0,0-1.43-2.45L59.13,63.16a17.5,17.5,0,0,0,.84,2h0c3.62,7.68,12.41,11.38,19.62,8.27l29.14-12.55C115.94,57.73,118.85,49,115.22,41.32Z"/></g><path class="cls-6" d="M74.22,67.32,90.31,60,80.08,37.5,64,44.83a12.19,12.19,0,0,0-6,16.15l.13.29A12.2,12.2,0,0,0,74.22,67.32Z"/><path class="cls-7" d="M106.83,52.75A12.45,12.45,0,0,0,113,36.27l-.13-.29a12.44,12.44,0,0,0-16.48-6.17l-17.3,7.87A44.87,44.87,0,0,0,89.53,60.62Z"/><g class="cls-4"><path class="cls-8" d="M74.22,67.32l15.15-6.9.16.2,17.3-7.87a12.44,12.44,0,0,0,7.28-11.29c-1.39,2.17-4.59,5.87-11.63,9.59-10.92,5.77-31.66,14.5-31.66,14.5a12.51,12.51,0,0,1-8.62.67A12.19,12.19,0,0,0,74.22,67.32Z"/></g><path class="cls-9" d="M76.2,69.84l31.36-14.18a15.42,15.42,0,0,0,7.69-20.41h0a15.41,15.41,0,0,0-20.4-7.69L63.49,41.75a15.41,15.41,0,0,0-7.7,20.4h0A15.42,15.42,0,0,0,76.2,69.84Z"/><path class="cls-10" d="M90.7,44.33c-8.58,3.91-16.21,5.61-17,3.79s5.47-6.45,14-10.36,16.21-5.61,17-3.79S99.29,40.42,90.7,44.33Z"/><g class="cls-4"><path class="cls-5" d="M96.69,91.21a16.52,16.52,0,0,0-1.43-2.45L40.6,113.05a17.42,17.42,0,0,0,.83,2h0c3.63,7.68,12.42,11.38,19.63,8.27L90.2,110.73C97.41,107.62,100.32,98.88,96.69,91.21Z"/></g><path class="cls-6" d="M55.68,117.21l16.1-7.32L61.55,87.39l-16.1,7.33a12.19,12.19,0,0,0-6.05,16.15l.13.29A12.19,12.19,0,0,0,55.68,117.21Z"/><path class="cls-7" d="M88.3,102.64a12.45,12.45,0,0,0,6.17-16.48l-.13-.29A12.45,12.45,0,0,0,77.86,79.7l-17.3,7.87A44.87,44.87,0,0,0,71,110.51Z"/><g class="cls-4"><path class="cls-8" d="M55.68,117.21l15.16-6.9c.06.07.1.14.16.2l17.3-7.87a12.44,12.44,0,0,0,7.28-11.29C94.19,93.52,91,97.22,84,100.94c-10.92,5.77-31.66,14.5-31.66,14.5a12.51,12.51,0,0,1-8.62.67A12.18,12.18,0,0,0,55.68,117.21Z"/></g><path class="cls-9" d="M57.67,119.74,89,105.55a15.41,15.41,0,0,0,7.69-20.4h0a15.42,15.42,0,0,0-20.4-7.7L45,91.64a15.42,15.42,0,0,0-7.7,20.4h0A15.43,15.43,0,0,0,57.67,119.74Z"/><path class="cls-10" d="M72.17,94.22c-8.58,3.91-16.21,5.61-17,3.8s5.47-6.46,14.05-10.37,16.21-5.61,17-3.79S80.76,90.31,72.17,94.22Z"/><g class="cls-4"><path class="cls-5" d="M78.16,141.1a15.92,15.92,0,0,0-1.43-2.44L22.07,162.94a17.56,17.56,0,0,0,.83,2h0c3.63,7.67,12.42,11.37,19.63,8.27l29.14-12.56C78.88,157.51,81.79,148.77,78.16,141.1Z"/></g><path class="cls-6" d="M37.15,167.1l16.1-7.32L43,137.29l-16.1,7.32a12.21,12.21,0,0,0-6.05,16.16l.13.28A12.19,12.19,0,0,0,37.15,167.1Z"/><path class="cls-7" d="M69.77,152.53a12.45,12.45,0,0,0,6.17-16.48l-.13-.29a12.46,12.46,0,0,0-16.48-6.17L42,137.47A44.84,44.84,0,0,0,52.47,160.4Z"/><g class="cls-4"><path class="cls-8" d="M37.15,167.1l15.16-6.89c.06.06.1.13.16.19l17.3-7.87a12.43,12.43,0,0,0,7.28-11.28c-1.39,2.16-4.59,5.86-11.63,9.58-10.92,5.77-31.66,14.5-31.66,14.5a12.51,12.51,0,0,1-8.62.67A12.15,12.15,0,0,0,37.15,167.1Z"/></g><path class="cls-9" d="M39.14,169.63,70.5,155.44A15.41,15.41,0,0,0,78.19,135h0a15.42,15.42,0,0,0-20.4-7.7L26.43,141.53a15.42,15.42,0,0,0-7.7,20.4h0A15.43,15.43,0,0,0,39.14,169.63Z"/><path class="cls-10" d="M53.64,144.11c-8.58,3.91-16.21,5.61-17,3.8s5.46-6.46,14-10.37,16.21-5.6,17-3.79S62.22,140.2,53.64,144.11Z"/><g class="cls-4"><path class="cls-5" d="M59.63,191a16.78,16.78,0,0,0-1.43-2.44L3.54,212.83a15.88,15.88,0,0,0,.83,2h0C8,222.47,16.78,226.17,24,223.07l29.14-12.56C60.35,207.4,63.26,198.67,59.63,191Z"/></g><path class="cls-6" d="M18.62,217l16.1-7.33L24.48,187.18,8.39,194.5a12.2,12.2,0,0,0-6.05,16.16l.13.29A12.19,12.19,0,0,0,18.62,217Z"/><path class="cls-7" d="M51.24,202.42A12.44,12.44,0,0,0,57.41,186l-.14-.3a12.44,12.44,0,0,0-16.47-6.17l-17.3,7.88A44.91,44.91,0,0,0,33.94,210.3Z"/><g class="cls-4"><path class="cls-8" d="M18.62,217l15.16-6.9.16.2,17.3-7.88a12.44,12.44,0,0,0,7.28-11.28c-1.39,2.16-4.59,5.86-11.63,9.58-10.92,5.78-31.66,14.5-31.66,14.5a12.51,12.51,0,0,1-8.62.67A12.17,12.17,0,0,0,18.62,217Z"/></g><path class="cls-9" d="M20.61,219.52,52,205.33a15.41,15.41,0,0,0,7.69-20.4h0a15.41,15.41,0,0,0-20.4-7.69L7.9,191.42A15.43,15.43,0,0,0,.2,211.83h0A15.42,15.42,0,0,0,20.61,219.52Z"/><path class="cls-10" d="M35.11,194c-8.58,3.9-16.21,5.6-17,3.79s5.46-6.45,14-10.36,16.21-5.61,17-3.8S43.69,190.1,35.11,194Z"/><path class="cls-11" d="M18.93,132l0-10.32,40.22.07,40.22.06,0,10.32a49.93,49.93,0,0,1,17,24.5A24.59,24.59,0,0,1,117.5,164v114.7a9.39,9.39,0,0,1-6.46,8.93c-8.87,2.91-26.67,7.4-52.15,7.36-26.84,0-43.57-4.29-51.86-7.18a9.41,9.41,0,0,1-6.31-8.88V163.81a24.45,24.45,0,0,1,1.15-7.45A49.9,49.9,0,0,1,18.93,132Z"/><path class="cls-12" d="M99.37,132.08S83.19,136.9,58,136.86s-39-4.91-39-4.91V121.63H99.38Z"/><path class="cls-13" d="M109.63,122.8c0,3.67-22.53,6.64-50.32,6.64S9,126.47,9,122.8V105.2H109.63Z"/><g class="cls-14"><path class="cls-15" d="M53.72,126.71h-1l0-11.47,1,0Z"/><path class="cls-15" d="M40,126.25l-1-.06V114.61l1,.06Z"/><path class="cls-15" d="M27.77,125.29l-1-.11,0-11.74,1,.12Z"/><path class="cls-15" d="M15.6,123.4l-1-.24V111.31l1,.24Z"/><path class="cls-15" d="M104,123.16l-1,.24,0-11.86,1-.24Z"/><path class="cls-15" d="M90.25,125.35l-1,.1,0-11.71,1-.11Z"/><path class="cls-15" d="M78.07,126.28l-1,0V114.77l1-.06Z"/><path class="cls-15" d="M65.89,126.7h-1l0-11.46,1,0Z"/></g><path class="cls-16" d="M9,105.2c0,2.94,22.53,6.74,50.32,6.74s50.32-3.8,50.32-6.74S87.1,99.87,59.31,99.87,9,102.26,9,105.2Z"/><path class="cls-17" d="M103,102.55c0,3.19-19.56,5.77-43.7,5.77s-43.7-2.58-43.7-5.77V97.67H103Z"/><path class="cls-13" d="M15.61,97.67c0,2.55,19.57,4.62,43.7,4.62s43.7-2.07,43.7-4.62S83.45,93,59.31,93,15.61,95.11,15.61,97.67Z"/><path class="cls-13" d="M.72,177.84v101.1a246.56,246.56,0,0,0,43.08,6.42,11.14,11.14,0,0,0,11.8-11.13V192.69a11.12,11.12,0,0,0-10.78-11.11A433.75,433.75,0,0,1,.72,177.84Z"/><path class="cls-13" d="M117.5,177.84q-6.93.9-14,1.55a11.12,11.12,0,0,0-10.07,11.08v80.1a11.16,11.16,0,0,0,13.46,10.91q5.33-1.11,10.58-2.54Z"/><g class="cls-18"><path class="cls-13" d="M117.47,279h0V164a24.59,24.59,0,0,0-1.13-7.37,51.21,51.21,0,0,0-9.55-17.39,19.46,19.46,0,0,0-.43,4V289c1.74-.49,3.31-1,4.65-1.41A9.38,9.38,0,0,0,117.47,279Z"/></g><path class="cls-19" d="M121.24,151.36V302.71a12.56,12.56,0,0,0,8.43,11.87c11.07,3.86,33.43,9.54,69.29,9.6,34,.05,57.84-5.95,69.69-9.84a12.57,12.57,0,0,0,8.63-11.93v-151Z"/><path class="cls-20" d="M276.94,151.36c0,4.41-34.86,8-77.85,8s-77.85-3.57-77.85-8,34.85-8,77.85-8S276.94,147,276.94,151.36Z"/><path class="cls-11" d="M164.58,88.16V79.22l34.84.06,34.83.06v8.93c9.13,7,48.35,33.23,48.35,55.11V307.09a13.4,13.4,0,0,1-9.22,12.74c-12.66,4.16-38.07,10.57-74.44,10.51-38.31-.06-62.19-6.12-74-10.25a13.41,13.41,0,0,1-9-12.68V143.17C115.92,121.5,155.44,95.07,164.58,88.16Z"/><path class="cls-12" d="M234.25,88.27s-14,4.18-35.86,4.14-33.81-4.25-33.81-4.25V79.22h69.68Z"/><path class="cls-13" d="M115.92,163.2c41.31,5.63,59.37,4.32,102.11,4.32,9,0,16.64,6.5,16.64,15.51V299.21A15.56,15.56,0,0,1,221,314.66c-42.72,5.18-63.71,2.81-105-7.14l-.08-.11Z"/><path class="cls-13" d="M243.13,80.23c0,3.18-19.51,5.75-43.58,5.75S156,83.41,156,80.23V65h87.16Z"/><g class="cls-14"><path class="cls-15" d="M194.7,83.62h-.86l0-9.94.85,0Z"/><path class="cls-15" d="M182.78,83.22l-.86,0v-10l.86.06Z"/><path class="cls-15" d="M172.23,82.39l-.86-.1,0-10.16.85.1Z"/><path class="cls-15" d="M161.69,80.75c-.3-.07-.59-.13-.86-.21V70.28l.85.21Z"/><path class="cls-15" d="M238.27,80.55l-.86.2V70.48l.86-.21Z"/><path class="cls-15" d="M226.34,82.44l-.86.09,0-10.14.85-.1Z"/><path class="cls-15" d="M215.8,83.24l-.86.05v-10l.85,0Z"/><path class="cls-15" d="M205.25,83.61h-.86V73.69l.86,0Z"/></g><path class="cls-16" d="M156,65c0,2.54,19.51,5.84,43.58,5.84s43.58-3.3,43.58-5.84-19.51-4.62-43.58-4.62S156,62.44,156,65Z"/><path class="cls-17" d="M237.4,62.7c0,2.76-16.94,5-37.85,5s-37.85-2.23-37.85-5V58.46h75.7Z"/><ellipse class="cls-13" cx="199.55" cy="58.46" rx="37.85" ry="4.01"/></g></g></svg>