<svg id="visual" viewBox="0 0 1920 1222" width="1920" height="1222" xmlns="http://www.w3.org/2000/svg" xmlns:xlink="http://www.w3.org/1999/xlink" version="1.1"><g stroke-width="1" stroke-linejoin="bevel"><path d="M920 644L670 926.5L975 885.5Z" fill="#bad3f6" stroke="#bad3f6"></path><path d="M920 644L664 633L670 926.5Z" fill="#ffffff" stroke="#ffffff"></path><path d="M670 926.5L995 1222L975 885.5Z" fill="#ccdef9" stroke="#ccdef9"></path><path d="M670 926.5L600 1222L995 1222Z" fill="#eef4fd" stroke="#eef4fd"></path><path d="M336 931.5L600 1222L670 926.5Z" fill="#95bdf2" stroke="#95bdf2"></path><path d="M995 1222L1285 878.5L975 885.5Z" fill="#ccdef9" stroke="#ccdef9"></path><path d="M975 885.5L1274 650L920 644Z" fill="#a8c8f4" stroke="#a8c8f4"></path><path d="M1285 878.5L1274 650L975 885.5Z" fill="#ccdef9" stroke="#ccdef9"></path><path d="M920 644L647 323.5L664 633Z" fill="#ccdef9" stroke="#ccdef9"></path><path d="M664 633L336 931.5L670 926.5Z" fill="#95bdf2" stroke="#95bdf2"></path><path d="M957 301.5L647 323.5L920 644Z" fill="#eef4fd" stroke="#eef4fd"></path><path d="M664 633L332 595L336 931.5Z" fill="#dde9fb" stroke="#dde9fb"></path><path d="M647 323.5L332 595L664 633Z" fill="#95bdf2" stroke="#95bdf2"></path><path d="M1274 650L957 301.5L920 644Z" fill="#95bdf2" stroke="#95bdf2"></path><path d="M995 1222L1287 1222L1285 878.5Z" fill="#2694e7" stroke="#2694e7"></path><path d="M0 940.5L300 1222L336 931.5Z" fill="#2694e7" stroke="#2694e7"></path><path d="M336 931.5L300 1222L600 1222Z" fill="#80b3ef" stroke="#80b3ef"></path><path d="M1592 647L1303 288.5L1274 650Z" fill="#ffffff" stroke="#ffffff"></path><path d="M1274 650L1303 288.5L957 301.5Z" fill="#ccdef9" stroke="#ccdef9"></path><path d="M1592 647L1274 650L1285 878.5Z" fill="#ccdef9" stroke="#ccdef9"></path><path d="M647 323.5L299 279.5L332 595Z" fill="#eef4fd" stroke="#eef4fd"></path><path d="M0 636L0 940.5L336 931.5Z" fill="#6aa8ec" stroke="#6aa8ec"></path><path d="M353 0L299 279.5L647 323.5Z" fill="#dde9fb" stroke="#dde9fb"></path><path d="M645 0L647 323.5L957 301.5Z" fill="#6aa8ec" stroke="#6aa8ec"></path><path d="M1634 943.5L1592 647L1285 878.5Z" fill="#a8c8f4" stroke="#a8c8f4"></path><path d="M1287 0L939 0L957 301.5Z" fill="#eef4fd" stroke="#eef4fd"></path><path d="M939 0L645 0L957 301.5Z" fill="#bad3f6" stroke="#bad3f6"></path><path d="M0 636L336 931.5L332 595Z" fill="#bad3f6" stroke="#bad3f6"></path><path d="M0 318.5L0 636L332 595Z" fill="#ffffff" stroke="#ffffff"></path><path d="M1287 1222L1634 943.5L1285 878.5Z" fill="#ccdef9" stroke="#ccdef9"></path><path d="M1287 1222L1581 1222L1634 943.5Z" fill="#ffffff" stroke="#ffffff"></path><path d="M0 940.5L0 1222L300 1222Z" fill="#a8c8f4" stroke="#a8c8f4"></path><path d="M645 0L353 0L647 323.5Z" fill="#bad3f6" stroke="#bad3f6"></path><path d="M299 279.5L0 318.5L332 595Z" fill="#bad3f6" stroke="#bad3f6"></path><path d="M1603 279.5L1287 0L1303 288.5Z" fill="#ccdef9" stroke="#ccdef9"></path><path d="M1303 288.5L1287 0L957 301.5Z" fill="#6aa8ec" stroke="#6aa8ec"></path><path d="M0 0L0 318.5L299 279.5Z" fill="#2694e7" stroke="#2694e7"></path><path d="M1920 325.5L1603 279.5L1592 647Z" fill="#bad3f6" stroke="#bad3f6"></path><path d="M1592 647L1603 279.5L1303 288.5Z" fill="#95bdf2" stroke="#95bdf2"></path><path d="M1920 1222L1920 888.5L1634 943.5Z" fill="#95bdf2" stroke="#95bdf2"></path><path d="M1634 943.5L1920 888.5L1592 647Z" fill="#a8c8f4" stroke="#a8c8f4"></path><path d="M1920 888.5L1920 623L1592 647Z" fill="#95bdf2" stroke="#95bdf2"></path><path d="M353 0L0 0L299 279.5Z" fill="#a8c8f4" stroke="#a8c8f4"></path><path d="M1920 0L1634 0L1603 279.5Z" fill="#2694e7" stroke="#2694e7"></path><path d="M1603 279.5L1634 0L1287 0Z" fill="#eef4fd" stroke="#eef4fd"></path><path d="M1581 1222L1920 1222L1634 943.5Z" fill="#2694e7" stroke="#2694e7"></path><path d="M1920 623L1920 325.5L1592 647Z" fill="#4f9eea" stroke="#4f9eea"></path><path d="M1920 325.5L1920 0L1603 279.5Z" fill="#2694e7" stroke="#2694e7"></path></g></svg>