<svg id="visual" viewBox="0 0 1920 1222" width="1920" height="1222" xmlns="http://www.w3.org/2000/svg" xmlns:xlink="http://www.w3.org/1999/xlink" version="1.1"><rect width="1920" height="1222" fill="#ffffff"></rect><g><g transform="translate(944 1205)"><path d="M0 -173L149.8 -86.5L149.8 86.5L0 173L-149.8 86.5L-149.8 -86.5Z" fill="#297EA6"></path></g><g transform="translate(1318 248)"><path d="M0 -76L65.8 -38L65.8 38L0 76L-65.8 38L-65.8 -38Z" fill="#297EA6"></path></g><g transform="translate(467 442)"><path d="M0 -154L133.4 -77L133.4 77L0 154L-133.4 77L-133.4 -77Z" fill="#297EA6"></path></g><g transform="translate(1249 1027)"><path d="M0 -59L51.1 -29.5L51.1 29.5L0 59L-51.1 29.5L-51.1 -29.5Z" fill="#297EA6"></path></g><g transform="translate(1644 928)"><path d="M0 -103L89.2 -51.5L89.2 51.5L0 103L-89.2 51.5L-89.2 -51.5Z" fill="#297EA6"></path></g><g transform="translate(676 798)"><path d="M0 -125L108.3 -62.5L108.3 62.5L0 125L-108.3 62.5L-108.3 -62.5Z" fill="#297EA6"></path></g><g transform="translate(878 251)"><path d="M0 -135L116.9 -67.5L116.9 67.5L0 135L-116.9 67.5L-116.9 -67.5Z" fill="#297EA6"></path></g><g transform="translate(1810 364)"><path d="M0 -54L46.8 -27L46.8 27L0 54L-46.8 27L-46.8 -27Z" fill="#297EA6"></path></g><g transform="translate(339 912)"><path d="M0 -77L66.7 -38.5L66.7 38.5L0 77L-66.7 38.5L-66.7 -38.5Z" fill="#297EA6"></path></g><g transform="translate(1510 552)"><path d="M0 -87L75.3 -43.5L75.3 43.5L0 87L-75.3 43.5L-75.3 -43.5Z" fill="#297EA6"></path></g></g></svg>